<?xml version="1.0" encoding="utf-8"?>
<svg id="svg" version="1.1" width="400" height="400" viewBox="0, 0, 400,400" xmlns="http://www.w3.org/2000/svg">
  <defs/>
  <g style="" transform="matrix(1.982363, 0, 0, 1.982363, -195.133942, -195.334671)">
    <path id="path0" d="M197.640 104.943 C 195.974 108.248,195.800 108.446,193.635 109.495 L 191.372 110.592 193.755 111.783 C 196.502 113.156,197.800 114.816,198.531 117.891 C 199.101 120.294,199.425 120.443,199.794 118.475 C 200.396 115.265,202.843 112.299,205.762 111.241 C 207.008 110.789,207.479 110.156,206.569 110.156 C 204.227 110.156,201.323 107.203,200.085 103.562 L 199.381 101.489 197.640 104.943 M164.069 115.510 C 162.762 117.171,163.865 119.922,165.838 119.922 C 168.155 119.922,169.432 117.053,167.829 115.449 C 166.524 114.145,165.125 114.167,164.069 115.510 M231.428 115.412 C 230.256 116.583,230.215 117.541,231.278 118.893 C 232.685 120.680,235.938 119.490,235.938 117.188 C 235.938 114.946,233.036 113.804,231.428 115.412 M187.109 129.932 C 167.204 132.622,148.779 141.972,134.766 156.495 C 125.812 165.774,122.902 171.484,127.127 171.484 C 128.757 171.484,129.227 171.098,132.767 166.852 C 141.369 156.532,150.967 148.858,161.914 143.548 C 223.656 113.596,291.277 166.750,277.122 234.108 C 275.972 239.580,276.859 241.797,279.723 240.610 C 281.402 239.915,282.313 236.937,283.863 227.074 C 292.455 172.412,242.665 122.422,187.109 129.932 M114.700 149.943 C 113.657 151.096,113.971 153.526,115.257 154.244 C 116.583 154.985,118.342 154.182,118.865 152.596 C 119.642 150.242,116.336 148.135,114.700 149.943 M169.336 149.635 C 151.803 151.373,134.137 168.176,129.200 187.810 C 128.161 191.941,127.948 203.347,128.841 207.031 C 130.351 213.265,132.649 218.463,135.661 222.461 C 137.262 224.585,139.955 227.414,139.315 226.297 C 139.152 226.013,139.388 225.786,139.936 225.702 C 140.422 225.628,140.782 225.369,140.735 225.125 C 140.688 224.882,140.917 224.581,141.244 224.456 C 141.644 224.302,141.743 224.385,141.547 224.712 C 141.317 225.095,141.381 225.094,141.855 224.710 C 142.185 224.444,142.580 224.350,142.732 224.503 C 142.885 224.656,142.880 224.435,142.721 224.012 C 142.463 223.325,142.504 223.301,143.100 223.786 C 143.693 224.268,143.737 224.247,143.490 223.590 C 143.253 222.957,143.301 222.923,143.827 223.350 C 144.333 223.761,144.482 223.740,144.678 223.227 C 144.809 222.886,145.093 222.716,145.310 222.850 C 145.929 223.233,145.777 222.758,144.770 221.163 C 130.965 199.293,138.345 169.587,160.265 158.797 C 170.077 153.967,179.334 153.969,187.372 158.805 C 190.239 160.529,191.160 157.394,188.529 154.872 C 184.436 150.951,176.875 148.887,169.336 149.635 M279.297 150.000 C 278.222 151.075,278.299 152.785,279.471 153.886 C 281.910 156.178,285.160 152.416,282.912 149.902 C 282.093 148.987,280.261 149.036,279.297 150.000 M231.445 155.638 C 229.982 156.302,227.732 158.379,227.740 159.060 C 227.756 160.361,244.185 176.273,245.157 175.930 C 247.947 174.945,249.462 171.620,248.111 169.448 C 247.133 167.876,234.686 155.469,234.087 155.469 C 233.851 155.469,233.424 155.387,233.137 155.288 C 232.851 155.188,232.090 155.346,231.445 155.638 M223.285 163.016 C 221.312 164.685,221.039 164.271,229.950 173.141 C 238.981 182.131,238.732 181.943,240.472 181.113 C 243.001 179.907,242.586 179.206,234.473 170.955 C 227.591 163.957,225.272 161.711,224.944 161.725 C 224.867 161.728,224.121 162.309,223.285 163.016 M166.016 165.733 C 150.555 171.023,144.271 191.823,152.430 210.702 C 155.433 217.652,162.017 226.023,163.675 224.998 C 163.975 224.813,164.368 224.752,164.549 224.864 C 164.962 225.119,166.070 224.233,165.828 223.841 C 165.570 223.423,167.556 222.597,168.064 222.911 C 168.339 223.080,168.403 222.942,168.243 222.525 C 168.070 222.075,168.200 221.873,168.665 221.869 C 170.324 221.854,170.294 221.261,168.527 219.124 C 160.009 208.826,155.893 195.760,158.012 185.753 C 160.610 173.490,171.394 167.073,179.354 173.054 C 182.169 175.169,183.984 174.831,183.984 172.190 C 183.984 167.271,173.028 163.333,166.016 165.733 M217.275 168.855 C 215.637 170.545,215.540 170.412,225.092 179.667 C 232.823 187.156,233.481 187.615,235.182 186.705 C 237.254 185.596,236.435 184.377,227.810 175.728 C 219.022 166.916,219.103 166.969,217.275 168.855 M211.795 174.335 C 211.109 175.043,210.547 175.836,210.547 176.097 C 210.547 177.199,226.776 192.969,227.910 192.969 C 228.845 192.969,230.078 191.517,230.078 190.416 C 230.078 189.409,214.406 173.028,213.456 173.041 C 213.229 173.044,212.482 173.627,211.795 174.335 M249.547 179.590 C 248.469 180.610,246.087 182.852,244.254 184.570 C 242.421 186.289,234.170 194.375,225.918 202.539 C 214.976 213.366,210.364 217.673,208.876 218.454 C 207.005 219.437,187.081 225.865,186.785 225.581 C 186.664 225.466,190.219 220.162,193.773 215.158 C 194.851 213.640,195.506 212.182,195.834 210.573 L 196.316 208.213 199.810 211.724 C 203.498 215.429,204.296 215.797,205.875 214.519 C 207.319 213.349,206.647 212.259,201.187 206.910 L 196.094 201.921 196.100 199.496 C 196.103 198.162,196.235 197.246,196.393 197.461 C 198.799 200.737,209.817 210.507,210.667 210.119 C 213.946 208.625,213.432 207.735,203.689 198.034 L 195.746 190.126 193.715 191.826 C 190.079 194.870,189.743 196.173,190.661 203.660 C 191.207 208.111,190.921 208.883,186.185 215.735 C 184.203 218.602,181.451 222.648,180.071 224.724 L 177.560 228.500 168.956 231.279 C 164.223 232.807,159.121 234.476,157.617 234.987 L 154.883 235.916 152.582 234.755 C 146.235 231.552,138.603 235.691,138.577 242.350 C 138.525 255.408,156.811 256.547,157.363 243.520 L 157.499 240.302 160.683 239.315 C 170.678 236.215,172.781 235.851,171.314 237.473 C 170.927 237.900,170.755 238.440,170.921 238.708 C 171.096 238.991,171.051 239.082,170.811 238.934 C 170.589 238.796,169.775 239.692,169.001 240.924 C 168.228 242.156,166.801 244.395,165.830 245.898 C 164.858 247.402,164.149 248.862,164.254 249.141 C 164.359 249.421,164.272 249.544,164.062 249.414 C 163.851 249.283,163.388 249.788,163.032 250.534 C 162.572 251.499,161.922 252.071,160.782 252.514 C 159.139 253.154,156.570 254.972,157.930 254.533 C 158.359 254.395,158.537 254.463,158.386 254.708 C 158.249 254.929,157.826 255.011,157.446 254.891 C 156.702 254.654,154.461 257.520,154.871 258.183 C 154.987 258.372,154.865 258.600,154.598 258.689 C 154.028 258.879,153.766 263.539,154.305 263.872 C 154.497 263.991,154.543 264.374,154.409 264.725 C 154.246 265.148,154.316 265.269,154.617 265.083 C 154.898 264.909,154.992 265.003,154.866 265.333 C 154.547 266.163,156.823 268.987,158.675 270.060 C 168.440 275.722,177.839 263.387,170.043 255.142 L 167.969 252.950 169.447 250.401 C 170.260 248.999,172.940 244.739,175.404 240.935 C 180.814 232.582,178.339 233.959,199.414 227.572 C 206.838 225.322,212.876 223.278,214.312 222.529 C 215.305 222.011,221.194 215.994,229.097 207.422 C 230.582 205.811,235.336 200.801,239.660 196.289 C 255.901 179.344,255.297 180.098,253.862 178.558 C 252.701 177.312,251.701 177.551,249.547 179.590 M205.936 180.194 C 204.120 182.068,204.016 181.908,212.338 190.126 C 221.557 199.230,221.548 199.224,222.972 198.165 C 225.235 196.483,224.979 196.068,216.137 187.122 C 207.168 178.047,207.680 178.395,205.936 180.194 M200.071 185.771 C 197.892 187.682,197.440 186.956,206.279 195.741 C 215.523 204.930,215.641 205.023,216.986 204.142 C 219.470 202.514,217.908 200.359,204.983 187.580 L 201.705 184.339 200.071 185.771 M169.263 193.666 C 167.162 195.002,168.347 202.136,171.755 208.668 C 172.824 210.717,176.502 215.617,175.617 213.814 C 175.497 213.570,175.695 213.130,176.056 212.837 C 176.507 212.471,176.621 212.457,176.419 212.793 C 176.233 213.103,176.356 213.281,176.758 213.281 C 177.105 213.281,177.287 213.114,177.161 212.910 C 177.034 212.706,177.288 212.348,177.723 212.115 C 178.159 211.882,178.516 211.444,178.516 211.141 C 178.516 210.839,178.857 210.352,179.275 210.060 C 180.003 209.550,179.948 209.403,177.911 206.424 C 175.911 203.499,173.843 198.967,173.266 196.244 C 172.793 194.015,170.767 192.710,169.263 193.666 M114.660 195.680 C 113.827 197.292,113.457 205.309,114.155 206.641 C 114.888 208.039,117.296 208.232,118.095 206.956 C 118.986 205.530,119.328 196.536,118.534 195.401 C 117.580 194.040,115.429 194.195,114.660 195.680 M114.401 217.630 C 113.245 218.786,114.424 231.334,115.915 233.747 C 116.050 233.966,116.211 234.601,116.272 235.159 C 116.615 238.291,122.514 252.585,124.412 254.883 C 124.767 255.313,124.954 255.456,124.827 255.203 C 124.700 254.949,124.802 254.614,125.054 254.459 C 125.340 254.282,125.407 254.345,125.233 254.627 C 125.076 254.880,125.179 255.081,125.465 255.084 C 125.867 255.089,125.861 255.163,125.438 255.431 C 124.848 255.805,124.854 255.819,126.860 258.886 C 127.661 260.112,128.382 260.833,128.651 260.679 C 128.899 260.538,128.974 260.562,128.819 260.734 C 128.403 261.195,129.710 263.232,131.028 264.177 C 131.657 264.628,132.052 264.803,131.906 264.566 C 131.728 264.278,131.931 264.215,132.519 264.376 C 133.234 264.572,133.270 264.643,132.715 264.759 C 128.918 265.548,146.083 281.084,157.617 287.297 C 182.411 300.652,214.845 301.246,239.648 288.799 C 252.082 282.559,256.940 277.928,252.957 276.113 C 251.870 275.618,249.742 276.191,249.912 276.933 C 249.971 277.191,249.845 277.294,249.632 277.162 C 249.419 277.031,247.598 277.960,245.586 279.228 C 238.151 283.912,231.976 286.694,223.816 289.037 C 221.029 289.838,218.880 290.638,219.042 290.817 C 219.204 290.995,219.121 291.018,218.859 290.867 C 217.944 290.341,211.719 291.458,211.713 292.149 C 211.709 292.510,211.586 292.608,211.420 292.383 C 211.241 292.139,207.231 291.992,200.781 291.992 C 182.726 291.992,168.284 288.037,154.968 279.444 C 152.157 277.629,151.557 277.373,152.344 278.320 C 152.741 278.799,152.718 278.906,152.219 278.906 C 151.824 278.906,151.659 278.638,151.753 278.150 C 151.861 277.589,151.025 276.695,148.508 274.681 C 133.289 262.504,122.979 244.439,119.504 223.861 C 118.336 216.943,116.873 215.158,114.401 217.630 M212.207 231.348 C 212.261 231.616,211.985 231.810,211.594 231.777 C 211.128 231.739,210.957 231.910,211.097 232.275 C 211.267 232.717,211.154 232.747,210.547 232.422 C 209.925 232.089,209.826 232.124,210.013 232.613 C 210.185 233.061,210.068 233.145,209.550 232.946 C 209.162 232.797,208.953 232.838,209.075 233.039 C 209.195 233.237,209.048 233.625,208.748 233.902 C 208.434 234.193,208.203 234.234,208.203 234.000 C 208.203 233.349,206.967 233.532,206.434 234.261 C 205.689 235.281,206.072 235.775,209.897 238.731 C 219.446 246.111,230.424 248.584,245.117 246.663 C 256.459 245.181,262.749 247.130,266.682 253.346 C 269.278 257.449,271.564 254.417,269.288 249.889 C 264.095 239.562,256.707 236.240,238.672 236.125 C 225.403 236.041,222.666 235.594,215.668 232.369 C 211.950 230.656,212.076 230.694,212.207 231.348 M150.707 239.073 C 153.846 240.986,153.903 245.466,150.815 247.547 C 146.583 250.399,141.329 245.566,143.557 240.871 C 144.747 238.364,148.144 237.510,150.707 239.073 M188.865 240.613 C 188.949 241.049,188.852 241.406,188.649 241.406 C 188.447 241.406,188.281 241.230,188.281 241.016 C 188.281 240.801,188.117 240.625,187.916 240.625 C 187.716 240.625,187.638 241.108,187.743 241.699 C 187.921 242.697,187.896 242.721,187.389 242.035 C 186.892 241.361,186.823 241.354,186.592 241.954 C 186.397 242.461,186.173 242.522,185.610 242.221 C 185.017 241.904,184.781 242.015,184.357 242.807 L 183.834 243.783 183.316 242.888 C 183.031 242.395,182.822 242.256,182.851 242.578 C 182.961 243.771,182.805 244.182,182.348 243.900 C 181.159 243.165,184.887 247.661,187.500 250.113 C 196.677 258.725,209.244 263.163,220.528 261.776 C 225.072 261.218,227.190 260.430,227.503 259.182 C 228.036 257.062,226.852 256.416,221.875 256.109 C 211.716 255.482,200.962 250.747,192.447 243.151 C 189.893 240.873,188.760 240.071,188.865 240.613 M125.442 250.524 C 125.203 250.813,125.137 251.192,125.296 251.368 C 125.456 251.544,125.366 251.561,125.098 251.407 C 124.514 251.071,124.452 251.607,124.999 252.267 C 125.213 252.526,125.093 252.478,124.732 252.162 C 124.119 251.625,124.123 251.535,124.794 250.793 C 125.586 249.917,126.134 249.690,125.442 250.524 M167.809 256.055 C 167.457 256.592,167.349 257.031,167.569 257.031 C 167.789 257.031,167.969 257.207,167.969 257.422 C 167.969 257.637,167.731 257.813,167.440 257.813 C 167.040 257.813,167.111 258.236,167.733 259.559 C 168.437 261.054,168.700 261.285,169.564 261.166 C 170.226 261.074,170.573 261.210,170.573 261.562 C 170.573 261.940,170.433 261.981,170.093 261.699 C 169.757 261.419,169.419 261.496,168.958 261.957 C 168.429 262.486,168.402 262.677,168.819 262.941 C 169.103 263.122,169.156 263.272,168.936 263.275 C 168.717 263.279,168.216 263.878,167.823 264.607 C 165.782 268.397,158.759 267.225,158.545 263.058 C 158.464 261.476,158.414 261.324,158.008 261.426 C 157.793 261.479,157.665 261.668,157.725 261.845 C 157.784 262.023,157.643 262.051,157.413 261.908 C 157.119 261.727,157.133 261.481,157.459 261.089 C 157.714 260.780,158.011 260.615,158.118 260.722 C 158.225 260.829,158.595 260.362,158.941 259.685 C 160.214 257.195,162.269 256.441,165.738 257.194 C 166.565 257.373,167.175 257.365,167.120 257.175 C 167.004 256.774,167.895 255.078,168.223 255.078 C 168.347 255.078,168.161 255.518,167.809 256.055 M170.964 257.191 C 170.964 257.522,170.727 257.647,170.365 257.508 C 169.935 257.343,169.905 257.232,170.258 257.114 C 170.620 256.994,170.563 256.727,170.043 256.112 C 169.342 255.281,169.343 255.279,170.150 255.959 C 170.597 256.336,170.964 256.890,170.964 257.191 M131.391 260.742 C 131.268 261.064,130.790 261.308,130.329 261.283 C 129.589 261.243,129.578 261.216,130.232 261.048 C 130.827 260.896,130.866 260.791,130.428 260.513 C 130.017 260.253,130.096 260.167,130.749 260.162 C 131.361 260.158,131.550 260.329,131.391 260.742 M248.828 260.432 C 245.253 261.054,242.137 262.255,234.375 266.007 C 218.783 273.542,210.654 274.140,202.119 268.381 C 201.138 267.718,200.144 267.294,199.912 267.437 C 199.647 267.601,199.603 267.515,199.793 267.206 C 200.020 266.839,199.873 266.785,199.219 266.992 C 198.620 267.182,198.425 267.133,198.607 266.839 C 198.965 266.259,198.323 266.286,197.734 266.875 C 197.190 267.419,197.100 268.117,197.615 267.799 C 197.808 267.680,198.073 267.865,198.206 268.210 C 198.377 268.656,198.278 268.772,197.862 268.613 C 196.380 268.044,198.403 269.999,201.151 271.791 C 213.975 280.157,227.522 280.373,243.193 272.462 C 257.134 265.424,264.497 266.586,269.802 276.660 C 271.788 280.432,274.172 280.272,273.735 276.395 C 272.651 266.777,259.781 258.529,248.828 260.432 M135.547 261.927 C 135.547 262.041,135.151 262.294,134.668 262.488 C 133.860 262.813,133.852 262.844,134.570 262.872 C 135.178 262.896,135.231 262.979,134.805 263.248 C 134.468 263.462,134.069 263.423,133.761 263.145 C 133.366 262.789,133.480 262.597,134.307 262.225 C 135.556 261.662,135.547 261.664,135.547 261.927 M136.172 266.194 C 136.172 266.942,136.059 267.060,135.659 266.728 C 135.273 266.407,135.256 266.171,135.590 265.768 C 136.169 265.071,136.172 265.074,136.172 266.194 M134.035 266.757 C 133.603 267.031,133.641 267.178,134.230 267.521 C 134.632 267.754,134.808 267.950,134.620 267.957 C 134.426 267.964,134.426 268.187,134.620 268.475 C 134.808 268.754,134.576 268.545,134.105 268.010 C 133.244 267.031,133.244 266.401,134.105 266.412 C 134.413 266.416,134.389 266.533,134.035 266.757 M159.205 266.756 C 159.086 266.948,159.291 267.221,159.659 267.363 C 160.219 267.578,160.238 267.677,159.773 267.964 C 159.090 268.386,158.484 268.072,158.847 267.485 C 159.023 267.200,158.860 267.144,158.365 267.317 C 157.640 267.572,157.640 267.562,158.375 266.993 C 159.236 266.327,159.520 266.246,159.205 266.756 M139.921 268.974 C 139.141 269.521,137.357 269.297,137.727 268.699 C 137.847 268.505,138.096 268.440,138.281 268.555 C 138.466 268.669,138.718 268.601,138.841 268.402 C 138.963 268.204,139.422 268.136,139.860 268.250 C 140.634 268.453,140.636 268.474,139.921 268.974 M167.052 269.191 C 166.633 269.436,166.186 269.467,165.985 269.266 C 165.783 269.064,166.085 268.888,166.706 268.844 C 167.643 268.779,167.685 268.821,167.052 269.191 M141.788 270.295 C 142.069 270.822,142.029 271.071,141.639 271.221 C 141.260 271.366,141.155 271.178,141.278 270.576 C 141.420 269.879,141.340 269.919,140.830 270.801 C 140.135 272.004,140.009 272.068,139.611 271.424 C 139.438 271.145,139.504 271.079,139.783 271.252 C 140.032 271.405,140.261 271.301,140.294 271.019 C 140.327 270.738,140.394 270.332,140.444 270.117 C 140.494 269.902,140.555 269.584,140.580 269.411 C 140.646 268.951,141.341 269.460,141.788 270.295 M139.063 270.857 C 139.063 271.681,138.057 271.894,137.245 271.241 C 136.573 270.700,136.584 270.689,137.408 271.089 C 138.118 271.433,138.339 271.399,138.524 270.915 C 138.812 270.165,139.063 270.138,139.063 270.857 M143.689 271.912 C 143.421 272.078,143.026 272.106,142.811 271.973 C 142.570 271.824,142.601 271.672,142.893 271.575 C 143.152 271.488,143.242 271.213,143.092 270.963 C 142.942 270.713,143.125 270.756,143.498 271.059 C 144.014 271.478,144.060 271.683,143.689 271.912 M140.016 272.473 C 140.433 272.789,140.555 273.047,140.286 273.047 C 140.003 273.047,139.918 273.253,140.083 273.535 C 140.240 273.804,139.987 273.689,139.520 273.279 C 138.108 272.041,138.532 271.351,140.016 272.473 M145.779 275.391 C 146.024 275.391,146.108 275.275,145.967 275.134 C 145.826 274.992,145.903 274.644,146.138 274.361 C 146.635 273.761,148.051 274.320,148.041 275.111 C 148.037 275.408,147.927 275.439,147.748 275.195 C 147.314 274.605,146.122 274.620,146.350 275.214 C 146.639 275.966,147.680 276.248,148.292 275.740 C 148.843 275.283,149.019 275.648,148.848 276.895 C 148.808 277.185,148.951 277.314,149.166 277.181 C 149.380 277.049,149.683 277.146,149.838 277.398 C 150.015 277.683,149.951 277.750,149.670 277.576 C 149.306 277.351,149.020 277.831,149.285 278.223 C 149.321 278.276,149.139 278.716,148.880 279.199 C 148.322 280.242,148.705 280.365,149.490 279.395 C 149.994 278.772,150.007 278.786,149.638 279.551 C 149.178 280.505,149.889 281.027,151.044 280.584 C 151.581 280.378,151.564 280.469,150.947 281.093 C 150.202 281.847,150.188 281.846,149.366 281.064 C 148.909 280.629,147.963 279.960,147.262 279.578 C 145.869 278.817,145.829 278.417,147.181 278.771 C 147.652 278.894,147.942 279.151,147.824 279.341 C 147.706 279.532,147.796 279.688,148.024 279.688 C 148.251 279.688,148.451 279.556,148.467 279.395 C 148.482 279.233,148.568 278.717,148.656 278.247 C 148.767 277.652,148.581 277.318,148.041 277.146 C 147.614 277.011,147.266 276.730,147.266 276.521 C 147.266 276.312,147.020 276.368,146.721 276.645 C 146.421 276.922,146.272 277.307,146.390 277.502 C 146.508 277.696,146.438 277.752,146.233 277.625 C 146.029 277.499,145.616 277.547,145.315 277.733 C 144.671 278.131,142.803 276.931,142.141 275.695 C 141.759 274.980,141.794 274.918,142.435 275.183 C 142.836 275.348,143.390 275.492,143.665 275.502 C 144.010 275.515,144.041 275.647,143.763 275.924 C 143.152 276.536,143.280 277.115,143.911 276.591 C 144.250 276.310,144.551 276.279,144.694 276.510 C 144.822 276.717,144.706 276.975,144.436 277.084 C 144.166 277.193,144.335 277.296,144.810 277.313 C 145.908 277.352,146.892 275.806,145.815 275.735 C 145.431 275.710,144.992 275.707,144.838 275.730 C 144.685 275.753,144.660 275.510,144.782 275.191 C 144.905 274.871,144.826 274.609,144.608 274.609 C 144.276 274.609,144.245 273.921,144.537 273.047 C 144.572 272.939,144.767 273.423,144.968 274.121 C 145.170 274.819,145.535 275.391,145.779 275.391 M141.850 273.711 C 141.401 273.890,141.401 273.975,141.850 274.260 C 142.215 274.491,142.013 274.590,141.211 274.573 C 140.566 274.559,140.260 274.459,140.530 274.350 C 140.800 274.241,140.921 273.991,140.800 273.795 C 140.678 273.598,140.985 273.451,141.481 273.468 C 141.990 273.486,142.151 273.591,141.850 273.711 M211.626 275.581 C 211.669 276.153,211.598 276.217,211.355 275.824 C 211.163 275.513,210.818 275.418,210.530 275.596 C 210.222 275.787,210.133 275.744,210.294 275.484 C 210.436 275.255,210.331 274.986,210.061 274.887 C 209.791 274.789,210.020 274.730,210.569 274.756 C 211.267 274.790,211.585 275.038,211.626 275.581 M151.352 279.273 C 151.477 279.475,151.928 279.572,152.354 279.490 C 153.013 279.363,153.068 279.455,152.723 280.100 C 152.499 280.518,152.224 280.859,152.112 280.859 C 151.999 280.859,152.016 280.684,152.148 280.469 C 152.359 280.129,151.566 279.892,150.684 280.032 C 150.522 280.057,150.391 279.814,150.391 279.492 C 150.391 278.841,151.000 278.702,151.352 279.273 M155.204 280.906 C 155.457 280.931,155.809 280.927,155.986 280.896 C 156.163 280.865,156.215 280.991,156.100 281.176 C 155.986 281.361,157.951 282.529,160.466 283.772 C 164.845 285.937,165.574 286.231,166.722 286.298 C 167.004 286.315,167.133 286.491,167.009 286.691 C 166.886 286.890,167.183 287.112,167.670 287.183 C 168.314 287.277,168.395 287.377,167.969 287.550 C 167.646 287.681,166.943 287.609,166.406 287.390 C 165.386 286.974,165.034 286.881,164.063 286.772 C 163.542 286.714,163.542 286.665,164.063 286.332 C 164.487 286.060,164.306 285.999,163.403 286.111 C 162.504 286.222,162.212 286.125,162.351 285.762 C 162.484 285.416,162.226 285.294,161.524 285.371 C 160.683 285.463,160.585 285.386,160.964 284.929 C 161.506 284.275,160.903 284.176,160.265 284.813 C 159.609 285.469,160.117 286.393,160.984 286.118 C 161.496 285.956,161.719 286.076,161.719 286.514 C 161.719 286.860,161.499 287.115,161.230 287.080 C 160.243 286.952,159.726 287.119,159.956 287.492 C 160.086 287.703,159.671 287.576,159.033 287.210 C 158.396 286.844,157.970 286.389,158.087 286.199 C 158.205 286.009,158.411 286.005,158.545 286.189 C 158.679 286.373,159.141 286.575,159.570 286.637 C 160.183 286.727,160.231 286.670,159.793 286.376 C 159.225 285.994,158.845 284.762,159.314 284.824 C 160.049 284.922,160.202 284.706,159.768 284.182 C 159.238 283.544,157.443 284.810,157.429 285.831 C 157.423 286.202,157.198 286.210,156.445 285.866 C 155.237 285.316,155.153 284.592,156.333 284.901 C 156.856 285.037,157.473 284.877,157.896 284.495 C 158.633 283.828,158.868 282.987,158.203 283.398 C 157.988 283.531,157.813 283.459,157.813 283.238 C 157.813 283.018,157.520 282.949,157.162 283.086 C 156.755 283.243,156.608 283.181,156.770 282.920 C 156.911 282.691,156.748 282.397,156.407 282.266 C 155.998 282.109,155.719 282.287,155.588 282.789 C 155.350 283.700,153.451 284.212,152.456 283.633 C 152.072 283.410,151.978 283.222,152.246 283.215 C 152.515 283.208,152.734 282.998,152.734 282.747 C 152.734 282.497,152.623 282.403,152.488 282.538 C 152.165 282.861,150.781 282.116,150.781 281.619 C 150.781 281.407,151.484 281.593,152.344 282.031 C 153.203 282.470,153.906 282.923,153.906 283.039 C 153.906 283.155,153.730 283.141,153.516 283.008 C 153.301 282.875,153.125 282.953,153.125 283.180 C 153.125 283.408,153.286 283.594,153.484 283.594 C 154.177 283.594,155.078 283.116,155.078 282.748 C 155.078 282.543,154.914 282.477,154.714 282.601 C 154.514 282.724,154.240 282.647,154.106 282.428 C 153.885 282.072,154.393 281.861,155.176 281.985 C 155.337 282.010,155.469 281.870,155.469 281.673 C 155.469 281.036,154.510 280.946,153.847 281.522 C 153.351 281.953,153.135 281.972,152.908 281.606 C 152.727 281.312,152.777 281.230,153.038 281.391 C 153.271 281.535,153.565 281.487,153.690 281.283 C 153.816 281.080,153.737 280.801,153.516 280.664 C 153.294 280.527,153.214 280.250,153.339 280.048 C 153.466 279.843,153.825 279.941,154.154 280.270 C 154.478 280.594,154.950 280.880,155.204 280.906 M248.242 283.049 C 247.242 283.820,246.094 284.452,246.094 284.232 C 246.094 284.033,248.538 282.432,248.828 282.441 C 248.936 282.444,248.672 282.718,248.242 283.049 M156.966 283.609 C 157.492 283.622,154.936 285.156,154.390 285.156 C 154.007 285.156,154.604 284.175,155.013 284.131 C 155.264 284.104,155.639 284.060,155.847 284.033 C 156.055 284.006,156.172 283.765,156.106 283.496 C 156.041 283.228,156.061 283.140,156.151 283.301 C 156.241 283.462,156.608 283.601,156.966 283.609 M237.805 286.337 C 238.263 287.070,238.242 287.091,237.509 286.634 C 237.074 286.362,236.719 286.007,236.719 285.844 C 236.719 285.280,237.314 285.550,237.805 286.337 M163.281 287.109 C 163.281 287.324,162.886 287.512,162.402 287.526 L 161.523 287.553 162.432 287.990 C 162.986 288.257,163.443 288.284,163.604 288.061 C 164.214 287.213,165.430 287.858,165.430 289.030 C 165.430 289.334,165.693 289.655,166.016 289.743 C 166.457 289.864,166.479 289.817,166.106 289.553 C 165.564 289.170,166.570 288.525,168.298 288.146 C 169.149 287.959,169.169 287.993,168.591 288.632 C 167.906 289.389,167.794 289.844,168.293 289.844 C 168.472 289.844,168.853 289.404,169.141 288.867 C 169.696 287.829,171.236 287.456,170.854 288.452 C 170.729 288.777,170.377 288.913,170.017 288.775 C 169.550 288.596,169.460 288.704,169.654 289.210 C 169.808 289.611,169.757 289.788,169.527 289.646 C 169.314 289.514,169.141 289.593,169.141 289.821 C 169.141 290.048,169.404 290.234,169.727 290.234 C 170.049 290.234,170.313 290.416,170.313 290.639 C 170.313 290.909,170.048 290.901,169.511 290.614 C 169.070 290.378,168.411 290.264,168.046 290.360 C 167.520 290.498,167.546 290.544,168.175 290.580 C 168.610 290.605,169.314 290.862,169.737 291.152 C 170.585 291.732,172.963 291.091,172.373 290.441 C 172.206 290.259,172.317 290.252,172.618 290.427 C 173.069 290.688,173.041 290.835,172.462 291.258 C 171.808 291.737,171.834 291.800,172.842 292.184 C 173.735 292.523,174.016 292.474,174.443 291.903 C 174.918 291.269,174.943 291.284,174.740 292.090 C 174.580 292.725,174.690 292.969,175.137 292.969 C 175.502 292.969,175.672 292.748,175.551 292.433 C 175.438 292.139,175.601 291.642,175.913 291.330 C 176.537 290.706,175.670 289.844,174.419 289.844 C 174.094 289.844,173.828 289.684,173.828 289.488 C 173.828 289.113,173.976 289.122,176.172 289.623 C 178.203 290.087,178.282 290.231,177.018 291.163 C 175.889 291.996,176.139 293.909,177.284 293.201 C 177.495 293.070,177.742 293.185,177.833 293.455 C 177.959 293.831,178.167 293.808,178.721 293.359 C 179.375 292.828,179.419 292.838,179.187 293.457 C 178.888 294.254,179.317 294.354,180.023 293.652 C 180.417 293.261,180.468 293.287,180.279 293.784 C 180.025 294.451,181.020 294.570,181.966 293.985 C 182.246 293.813,182.579 293.777,182.708 293.906 C 182.837 294.035,182.743 294.141,182.499 294.141 C 182.255 294.141,182.149 294.385,182.264 294.683 C 182.441 295.144,182.100 295.142,180.006 294.668 C 178.649 294.360,177.275 294.060,176.953 293.999 C 176.631 293.939,176.104 293.801,175.781 293.692 C 175.459 293.583,173.350 292.880,171.094 292.129 C 168.838 291.378,167.021 290.600,167.056 290.401 C 167.091 290.202,166.559 290.027,165.873 290.013 C 164.693 289.989,160.597 288.334,160.563 287.868 C 160.548 287.666,162.326 286.854,162.988 286.760 C 163.149 286.737,163.281 286.895,163.281 287.109 M239.833 287.568 C 240.185 287.681,239.882 287.930,239.052 288.207 C 237.967 288.570,237.819 288.564,238.316 288.178 C 238.657 287.913,238.863 287.432,238.774 287.109 C 238.670 286.733,238.728 286.677,238.935 286.953 C 239.113 287.189,239.517 287.466,239.833 287.568 M163.747 288.701 C 163.824 288.932,164.054 289.121,164.258 289.121 C 164.462 289.121,164.692 288.932,164.769 288.701 C 164.846 288.470,164.616 288.281,164.258 288.281 C 163.900 288.281,163.670 288.470,163.747 288.701 M173.393 288.908 C 173.525 289.052,173.149 289.082,172.559 288.975 C 171.538 288.790,171.016 289.232,171.905 289.528 C 172.138 289.606,171.963 289.996,171.514 290.403 C 170.773 291.073,170.703 291.079,170.703 290.467 C 170.703 290.055,170.879 289.906,171.160 290.080 C 171.472 290.273,171.534 290.145,171.354 289.677 C 170.898 288.487,172.462 287.897,173.393 288.908 M227.644 290.234 C 227.375 290.664,227.001 291.016,226.811 291.016 C 226.622 291.016,226.663 290.780,226.902 290.491 C 227.141 290.203,227.221 289.852,227.080 289.710 C 226.939 289.569,227.117 289.453,227.477 289.453 C 228.034 289.453,228.059 289.570,227.644 290.234 M178.815 291.164 C 178.442 291.447,178.252 291.794,178.392 291.934 C 178.533 292.074,178.958 291.909,179.337 291.566 C 179.834 291.115,180.377 291.019,181.289 291.220 C 182.262 291.433,182.415 291.574,181.954 291.832 C 181.556 292.055,181.422 292.518,181.554 293.212 C 181.688 293.912,181.612 294.169,181.324 293.991 C 181.087 293.845,180.988 293.480,181.103 293.180 C 181.251 292.794,181.088 292.694,180.544 292.836 C 180.121 292.946,179.652 292.837,179.501 292.593 C 179.301 292.269,179.059 292.286,178.601 292.657 C 178.201 292.981,178.075 292.998,178.252 292.703 C 178.404 292.449,178.362 292.139,178.158 292.013 C 177.955 291.887,177.678 291.963,177.543 292.181 C 177.160 292.800,176.561 292.647,176.811 291.994 C 176.934 291.673,177.192 291.508,177.385 291.627 C 177.577 291.746,177.734 291.670,177.734 291.458 C 177.734 291.137,178.317 290.848,179.297 290.683 C 179.404 290.665,179.187 290.881,178.815 291.164 M179.517 291.756 C 179.246 292.195,180.401 292.666,180.936 292.335 C 181.185 292.181,181.136 291.965,180.803 291.754 C 180.121 291.322,179.786 291.322,179.517 291.756 M185.872 291.809 C 186.771 291.819,186.820 291.875,186.227 292.221 C 185.850 292.440,185.366 292.513,185.153 292.381 C 184.940 292.249,184.766 292.289,184.766 292.469 C 184.766 292.786,187.047 293.889,187.551 293.816 C 187.687 293.797,188.126 294.143,188.526 294.586 C 189.248 295.384,189.244 295.390,188.084 295.269 C 187.440 295.201,186.667 295.298,186.365 295.485 C 185.991 295.716,185.905 295.681,186.096 295.373 C 186.252 295.120,186.149 294.920,185.863 294.917 C 185.582 294.914,184.912 294.815,184.375 294.697 L 183.398 294.482 184.375 295.079 C 185.248 295.612,185.269 295.676,184.570 295.683 C 183.304 295.696,182.527 295.051,183.109 294.469 C 183.845 293.733,183.692 293.088,182.715 292.811 L 181.836 292.561 182.813 291.996 C 183.350 291.686,184.023 291.514,184.309 291.614 C 184.595 291.715,185.299 291.802,185.872 291.809 M217.406 292.014 C 218.139 292.601,218.136 292.608,217.313 292.210 C 216.846 291.985,216.142 291.904,215.751 292.030 C 215.158 292.223,215.137 292.191,215.625 291.840 C 216.394 291.286,216.512 291.298,217.406 292.014 M183.659 292.146 C 183.239 292.406,183.257 292.515,183.750 292.704 C 184.086 292.833,184.269 293.180,184.156 293.475 C 184.043 293.769,184.178 294.027,184.456 294.047 C 184.734 294.067,185.356 294.205,185.840 294.353 C 186.413 294.529,186.719 294.459,186.719 294.154 C 186.719 293.896,186.503 293.757,186.239 293.845 C 185.727 294.015,184.582 293.087,184.331 292.298 C 184.239 292.007,183.977 291.948,183.659 292.146 M190.277 293.199 C 190.535 293.857,190.573 293.864,190.598 293.262 C 190.613 292.886,190.888 292.578,191.208 292.578 C 191.655 292.578,191.593 292.807,190.943 293.555 C 189.969 294.674,189.363 294.779,188.672 293.945 C 188.378 293.592,188.346 293.359,188.591 293.359 C 188.815 293.359,189.065 293.562,189.147 293.809 C 189.229 294.056,189.531 294.180,189.818 294.084 C 190.223 293.949,190.190 293.762,189.669 293.241 C 189.301 292.872,188.838 292.671,188.640 292.793 C 188.443 292.915,188.281 292.830,188.281 292.604 C 188.281 291.905,189.967 292.408,190.277 293.199 M211.353 293.922 C 211.367 294.150,211.528 293.965,211.711 293.511 C 212.085 292.584,213.758 291.900,213.406 292.818 C 213.291 293.116,213.422 293.359,213.695 293.359 C 213.969 293.359,214.080 293.472,213.942 293.610 C 213.804 293.748,213.435 293.649,213.123 293.390 C 212.664 293.010,212.474 293.068,212.141 293.691 C 211.697 294.520,210.826 294.576,210.074 293.824 C 209.715 293.465,209.716 293.359,210.078 293.359 C 210.336 293.359,210.547 293.173,210.547 292.946 C 210.547 292.718,210.344 292.657,210.096 292.811 C 209.798 292.995,209.752 292.917,209.960 292.579 C 210.290 292.045,211.299 293.018,211.353 293.922 M196.875 293.428 C 196.875 293.630,196.699 293.687,196.484 293.555 C 196.270 293.422,196.094 293.499,196.094 293.727 C 196.094 293.954,196.347 294.141,196.657 294.141 C 196.966 294.141,197.328 294.316,197.460 294.530 C 197.620 294.788,197.359 294.790,196.686 294.534 C 195.826 294.207,195.688 294.250,195.784 294.814 C 195.847 295.181,195.635 295.503,195.313 295.531 C 194.935 295.565,194.909 295.523,195.238 295.415 C 195.637 295.283,195.600 295.017,195.072 294.205 C 194.418 293.199,194.419 293.184,195.117 293.750 C 195.781 294.289,195.822 294.270,195.625 293.507 C 195.454 292.842,195.557 292.715,196.143 292.869 C 196.546 292.974,196.875 293.226,196.875 293.428 M214.998 293.727 C 214.401 294.359,213.773 294.789,213.602 294.683 C 213.430 294.577,213.389 294.807,213.511 295.195 C 213.722 295.871,213.713 295.871,213.279 295.193 C 212.900 294.602,212.728 294.570,212.210 294.998 C 211.661 295.452,211.649 295.419,212.100 294.693 C 212.443 294.143,212.895 293.934,213.492 294.048 C 214.133 294.171,214.448 293.992,214.636 293.398 C 214.779 292.947,215.163 292.578,215.489 292.578 C 215.908 292.578,215.763 292.916,214.998 293.727 M199.857 293.274 C 199.754 293.442,199.084 293.603,198.370 293.633 C 197.186 293.681,197.157 293.657,198.047 293.366 C 199.354 292.939,200.088 292.901,199.857 293.274 M202.350 293.893 C 202.353 294.137,202.526 294.072,202.734 293.750 C 202.943 293.428,203.116 293.362,203.119 293.605 C 203.122 293.847,202.828 294.286,202.464 294.581 C 201.900 295.039,201.852 295.036,202.138 294.563 C 202.388 294.147,202.309 294.070,201.822 294.257 C 201.464 294.395,201.172 294.318,201.172 294.087 C 201.172 293.855,200.917 293.764,200.606 293.884 C 200.249 294.021,200.112 293.913,200.235 293.593 C 200.470 292.980,202.341 293.246,202.350 293.893 M206.130 293.862 C 206.534 293.707,206.436 293.980,205.840 294.665 C 205.343 295.236,204.714 295.703,204.441 295.703 C 204.168 295.703,203.766 296.011,203.547 296.387 C 203.103 297.148,202.996 296.884,203.362 295.930 C 203.493 295.591,203.951 295.313,204.382 295.313 C 205.120 295.313,205.112 295.267,204.242 294.508 L 203.320 293.704 204.417 294.372 C 205.506 295.036,205.512 295.034,205.353 294.103 C 205.264 293.586,205.265 293.374,205.355 293.631 C 205.444 293.887,205.793 293.992,206.130 293.862 M222.792 294.192 C 221.561 294.677,220.828 294.543,221.790 294.009 C 222.280 293.737,222.543 293.353,222.376 293.157 C 222.208 292.960,222.395 293.049,222.792 293.354 C 223.493 293.893,223.493 293.916,222.792 294.192 M190.955 294.907 C 190.220 295.589,189.905 296.094,190.234 296.061 C 191.240 295.959,191.797 296.082,191.797 296.406 C 191.797 296.578,191.182 296.646,190.430 296.559 C 188.713 296.358,188.722 296.185,190.527 294.665 C 192.377 293.108,192.698 293.289,190.955 294.907 M192.883 294.696 C 192.178 295.183,191.515 295.507,191.410 295.417 C 191.304 295.327,191.526 295.081,191.904 294.870 C 192.281 294.659,192.807 294.251,193.072 293.964 C 193.338 293.676,193.692 293.525,193.860 293.626 C 194.028 293.728,193.588 294.209,192.883 294.696 M199.782 294.739 C 200.199 295.054,200.462 295.326,200.368 295.342 C 199.156 295.553,198.751 295.724,198.222 296.253 C 197.880 296.595,197.404 296.875,197.163 296.875 C 196.923 296.875,197.067 296.597,197.484 296.257 C 198.080 295.771,198.103 295.683,197.591 295.842 C 197.233 295.953,196.846 295.799,196.731 295.500 C 196.571 295.084,196.724 295.030,197.382 295.273 C 198.327 295.622,199.219 295.442,199.219 294.902 C 199.219 294.711,198.926 294.668,198.569 294.805 C 198.132 294.973,198.011 294.905,198.201 294.598 C 198.564 294.010,198.852 294.036,199.782 294.739 M210.352 295.052 C 210.582 295.249,210.462 295.296,210.059 295.166 C 209.683 295.045,209.375 295.053,209.375 295.184 C 209.375 295.315,209.683 295.655,210.059 295.941 C 210.558 296.320,210.596 296.463,210.199 296.472 C 209.901 296.479,209.423 296.177,209.138 295.801 C 208.821 295.383,208.614 295.307,208.606 295.605 C 208.599 295.874,208.257 296.094,207.845 296.094 C 207.433 296.094,207.008 296.313,206.899 296.582 C 206.744 296.967,206.696 296.965,206.671 296.574 C 206.655 296.300,207.080 295.877,207.617 295.632 C 208.154 295.387,208.594 295.029,208.594 294.836 C 208.594 294.643,208.770 294.594,208.984 294.727 C 209.199 294.859,209.375 294.753,209.375 294.489 C 209.375 294.223,209.505 294.167,209.668 294.364 C 209.829 294.558,210.137 294.868,210.352 295.052 M206.606 295.423 C 206.265 295.684,206.059 296.162,206.148 296.484 C 206.289 296.995,206.258 296.997,205.911 296.497 C 205.474 295.868,206.008 294.912,206.786 294.934 C 207.028 294.941,206.947 295.161,206.606 295.423 M188.472 296.102 C 188.244 296.470,186.719 296.131,186.719 295.712 C 186.719 295.552,187.156 295.504,187.691 295.607 C 188.225 295.709,188.577 295.932,188.472 296.102 M193.756 296.010 C 193.760 295.645,193.841 295.631,194.050 295.961 C 194.209 296.210,194.865 296.496,195.509 296.597 C 196.304 296.721,196.115 296.773,194.922 296.760 C 192.898 296.738,192.188 296.550,192.188 296.038 C 192.188 295.834,192.528 295.858,192.969 296.094 C 193.561 296.411,193.751 296.391,193.756 296.010 M202.051 296.442 C 202.427 296.465,202.734 296.656,202.734 296.865 C 202.734 297.105,202.390 297.115,201.807 296.894 C 201.247 296.681,200.737 296.685,200.517 296.905 C 200.293 297.129,199.867 297.059,199.407 296.723 C 198.720 296.221,198.769 296.186,200.014 296.288 C 200.758 296.349,201.675 296.418,202.051 296.442 " stroke="none" fill="#c6a679" fill-rule="evenodd"/>
  </g>
</svg>